<?xml version="1.0" encoding="utf-8"?>
<!-- Generator: Adobe Illustrator 26.0.0, SVG Export Plug-In . SVG Version: 6.00 Build 0)  -->
<svg version="1.1" id="Слой_1" xmlns="http://www.w3.org/2000/svg" xmlns:xlink="http://www.w3.org/1999/xlink" x="0px" y="0px"
	 viewBox="0 0 920 600" style="enable-background:new 0 0 920 600;" xml:space="preserve">
<style type="text/css">
	.st0{fill:#8A5905;}
</style>
<g transform="translate(0.000000,600.000000) scale(0.100000,-0.100000)">
	<path class="st0" d="M4658,4855c-3-6-11-28-18-50s-39-92-70-155c-79-159-94-208-93-310c0-96,17-148,72-226l34-48l29,34
		c126,147,177,317,148,491l-13,74l-22-65c-12-36-41-105-65-154c-30-60-45-105-48-142c-5-66-22-82-22-22c0,50,25,144,70,273
		c25,69,32,107,32,165C4693,4791,4671,4877,4658,4855z"/>
	<path class="st0" d="M4965,4240c-70-46-100-95-175-291c-26-68-53-120-75-145l-35-39l30,50c17,28,39,89,51,140c11,50,29,114,38,142
		l19,53l-27-19c-110-80-190-240-199-400l-5-94l37,6c54,9,117,42,170,89c64,55,116,168,151,323c14,66,35,139,45,163
		C5011,4265,5008,4268,4965,4240z"/>
	<path class="st0" d="M4255,4163c4-32,2-118-4-191c-18-222,11-346,104-438c28-29,70-61,93-73l42-22l11,28c39,97,51,254,28,352
		c-11,51-69,176-96,208c-18,22-18,18-18-165c0-126,4-196,13-215c19-44,13-56-7-17c-25,47-38,123-45,260c-8,153-30,217-98,298l-29,34
		L4255,4163z"/>
	<path class="st0" d="M4912,3706c-22-24-49-61-60-83c-20-39-45-140-57-228c-8-65-40-162-65-200c-26-39-25-29,1,32
		c15,35,23,84,30,183c5,74,14,148,19,163c14,42-3,25-58-57c-59-88-91-176-99-271c-5-66,9-200,22-213c11-12,120,53,162,96
		c80,82,122,214,123,392c0,47,7,117,14,155c8,39,13,71,11,73C4954,3749,4935,3731,4912,3706z"/>
	<path class="st0" d="M4170,3487c0-3,9-24,19-48c11-24,33-112,50-195c36-178,72-269,135-341c51-57,142-108,214-119l42-7v100
		c0,193-59,324-207,457l-43,38l15-37c9-20,27-90,40-155c26-126,42-173,75-220c28-40,25-51-5-15c-38,45-80,131-105,215
		c-47,159-113,263-199,313C4184,3483,4170,3489,4170,3487z"/>
	<path class="st0" d="M4963,3155c-45-85-55-153-42-283c13-121,8-248-9-277c-9-16-10-8-6,40c3,33,1,85-4,115c-6,30-18,101-28,158
		l-18,104l-27-71c-16-38-34-108-40-154c-11-72-10-97,3-166c16-80,69-211,85-211c18,1,96,83,127,134c63,105,71,246,26,431
		c-12,50-25,124-29,165l-6,74L4963,3155z"/>
	<path class="st0" d="M3283,2765c4-11,14-60,23-110c9-49,24-106,34-126c36-70,130-130,151-98c27,41-22,197-79,252l-29,28l17-78
		c9-43,22-89,29-101c7-13,11-26,8-28c-9-9-34,44-60,126c-20,66-34,93-63,120C3286,2777,3279,2780,3283,2765z"/>
	<path class="st0" d="M4309,2692c21-32,68-115,105-187c36-71,83-152,104-180c48-63,122-119,191-145c54-21,192-32,207-17
		c13,12-23,150-57,220c-39,81-112,165-188,216c-53,36-134,81-146,81c-3,0,10-22,28-49c19-27,55-93,82-147c33-69,63-113,100-151
		c59-59,60-66,3-27c-42,29-89,88-172,215c-83,128-156,187-267,219l-28,8L4309,2692z"/>
	<path class="st0" d="M5159,2624c-22-76-16-177,16-264c15-41,38-106,52-145c26-78,42-195,26-195c-6,0-13,24-15,53
		c-3,40-22,91-71,194c-37,77-67,149-68,159c-1,46-19-32-25-109c-11-151,36-296,135-415c51-61,53-63,72-46c38,34,89,155,96,225
		c9,106-11,185-85,328c-35,70-77,157-92,195l-27,69L5159,2624z"/>
	<path class="st0" d="M3633,2578c-14-27-17-54-16-143c2-65-2-116-8-125c-8-12-10-8-6,15c3,17,0,64-7,105c-11,72-12,74-26,50
		c-19-33-20-183-1-227c16-39,30-41,59-10c53,56,64,136,37,266c-9,41-14,80-11,88C3664,2622,3650,2610,3633,2578z"/>
	<path class="st0" d="M3355,2282c29-59,66-119,82-134c35-33,92-58,134-58c31,0,32,0,25,42c-13,81-71,162-147,207l-36,21l40-77
		c22-43,51-91,66-107c23-25,23-27,5-18c-12,7-46,49-77,94c-60,91-79,112-119,127C3301,2389,3302,2387,3355,2282z"/>
	<path class="st0" d="M3734,2305c-7-39-5-49,40-205c7-25,11-52,8-60c-4-9-9,2-13,25c-4,22-21,69-38,105l-31,65l3-90
		c3-94,15-132,61-188l23-29l24,38c48,78,38,161-40,319l-29,60L3734,2305z"/>
	<path class="st0" d="M5502,2100c4-104,27-158,123-292c75-103,125-200,125-238c-1-19-5-14-19,22c-23,58-51,99-111,163
		c-26,28-68,76-94,108c-45,56-46,57-46,28c0-60,31-178,65-247c40-82,125-177,205-229c30-19,57-35,61-35c9,0,37,69,49,120
		c14,65,12,124-6,188c-32,110-64,159-201,304c-45,48-90,100-100,115c-9,15-26,39-36,53l-19,25L5502,2100z"/>
	<path class="st0" d="M3910,2048c4-44,16-72,57-134c47-72,72-124,60-124c-3,0-19,24-36,53c-17,28-46,70-65,92l-35,40l5-40
		c11-70,54-153,102-196c25-21,48-39,53-39c11,0,29,68,29,110c0,46-37,124-86,181c-21,25-51,60-65,79l-25,34L3910,2048z"/>
	<path class="st0" d="M4581,2009c49-35,50-36,164-164c44-49,95-103,114-120c129-115,279-157,431-120c69,17,71,18,65,44
		c-7,31-58,117-105,174c-37,47-100,97-172,139c-45,26-202,78-237,78c-9,0,35-53,109-130c94-97,141-138,190-165c84-45,54-46-36,0
		c-39,20-114,74-174,125c-57,50-118,100-135,110c-50,30-151,60-206,60h-52L4581,2009z"/>
	<path class="st0" d="M3532,1938c104-114,149-141,230-141c32,0,63,4,68,9c13,13-22,79-67,125c-37,39-101,75-151,85c-29,6-28,4,31-60
		c34-37,76-75,92-86c17-11,26-20,20-20c-18,0-68,35-125,87c-61,55-98,77-149,87C3448,2030,3449,2028,3532,1938z"/>
	<path class="st0" d="M4136,1875c11-49,31-80,75-121c69-63,119-117,119-126c0-5-15,6-33,24c-37,37-137,111-143,105
		c-8-8,49-104,84-140c37-38,105-77,135-77c14,0,17,10,17,53c-1,94-42,153-164,231c-29,19-63,45-75,58l-22,23L4136,1875z"/>
	<path class="st0" d="M4424,1722c22-42,68-78,152-119c40-20,83-47,96-61l23-26l-33,24c-19,12-69,35-113,51c-70,25-78,26-69,10
		c5-10,32-39,60-64c52-47,115-74,185-79c39-3,40-2,37,27c-5,49-45,118-90,151c-22,18-78,44-124,59s-96,34-111,42l-28,14L4424,1722z"
		/>
	<path class="st0" d="M3893,1691c44-29,92-55,108-58c35-7,49-23,21-23c-11,0-62,21-113,47c-78,39-105,48-159,50c-55,3-62,1-46-9
		c200-135,227-148,305-148c25,0,65,9,89,20c38,17,42,22,32,40c-17,31-107,98-148,110c-20,6-66,13-102,17l-65,6L3893,1691z"/>
	<path class="st0" d="M4181,1529c-24-6-39-14-35-18c20-16,150-54,189-55c24-1,41-4,38-8c-7-12-72-9-138,7c-73,18-157,19-202,3
		l-34-12l113-38c144-47,177-53,238-38c55,13,130,62,130,84c0,8-29,29-64,46C4343,1536,4256,1546,4181,1529z"/>
	<path class="st0" d="M5280,1483c0-5,19-19,42-29s79-43,123-72c101-66,170-100,226-108c61-9,84-23,39-24c-60,0-148,28-280,89
		c-69,32-141,65-160,72c-40,16-222,18-258,3c-21-9-19-12,35-34c32-13,69-31,83-40c198-132,303-189,385-209c58-15,196-16,241-3
		c36,11,131,57,158,77c17,13,17,15-9,49c-65,85-191,172-300,206C5528,1484,5280,1502,5280,1483z"/>
	<path class="st0" d="M4595,1422c-27-11-66-29-85-40l-35-22l137,2c75,2,130-1,122-5c-8-5-74-15-146-23c-94-10-141-20-164-34
		c-68-43-63-45,104-45c139,0,162,2,202,21c45,21,112,84,123,115C4867,1434,4685,1455,4595,1422z"/>
</g>
</svg>
