<?xml version="1.0" standalone="no"?>
<!DOCTYPE svg PUBLIC "-//W3C//DTD SVG 20010904//EN"
 "http://www.w3.org/TR/2001/REC-SVG-20010904/DTD/svg10.dtd">
<svg version="1.0" xmlns="http://www.w3.org/2000/svg"
 width="923.000000pt" height="1280.000000pt" viewBox="0 0 923.000000 1280.000000"
 preserveAspectRatio="xMidYMid meet">
<g transform="translate(0.000000,1280.000000) scale(0.100000,-0.100000)"
fill="#000000" stroke="none">
<path d="M5723 12414 c-73 -188 -90 -332 -46 -406 66 -113 234 -101 274 19 18
55 4 97 -56 164 -69 79 -101 140 -123 230 l-18 72 -31 -79z"/>
<path d="M6197 12034 c-36 -76 -98 -144 -182 -199 -78 -51 -88 -62 -109 -129
-11 -33 13 -93 49 -125 92 -81 220 -29 261 105 14 49 18 299 5 358 l-6 29 -18
-39z"/>
<path d="M6403 12005 c-6 -217 -107 -458 -265 -632 -63 -70 -95 -138 -104
-221 -6 -61 -8 -64 -22 -46 -13 18 -14 17 -8 -10 14 -58 56 -346 71 -481 22
-197 30 -670 16 -885 -22 -330 -68 -620 -147 -939 -49 -198 -71 -264 -85 -255
-5 3 -9 22 -9 42 0 49 -23 138 -52 199 -32 69 -136 174 -210 213 -128 67 -244
155 -363 275 -171 170 -259 306 -375 580 l-43 100 6 170 c4 149 28 332 53 423
4 12 2 22 -4 22 -6 0 -17 -30 -26 -67 -30 -134 -46 -303 -46 -494 0 -138 -5
-222 -19 -312 -36 -227 -45 -351 -45 -627 -1 -285 6 -366 45 -507 25 -91 51
-151 101 -230 45 -71 150 -173 210 -204 223 -114 462 -78 630 93 43 45 68 64
68 53 0 -50 -301 -772 -330 -790 -6 -4 -10 16 -10 57 -1 205 -81 341 -275 466
-313 202 -504 446 -649 829 l-46 122 0 173 c0 254 24 493 71 718 11 52 23 107
26 123 3 15 1 27 -4 27 -5 0 -19 -44 -31 -97 -55 -251 -72 -409 -78 -723 -5
-260 -7 -284 -39 -450 -66 -336 -90 -599 -82 -874 4 -151 9 -198 31 -281 39
-153 94 -255 185 -346 118 -118 222 -162 381 -163 137 0 232 35 343 127 26 22
50 37 53 34 8 -8 -363 -763 -373 -759 -4 2 -7 24 -5 50 8 133 -47 286 -135
378 -27 28 -89 77 -138 109 -57 38 -134 103 -210 180 -192 191 -300 371 -401
668 -50 147 -56 176 -69 312 -18 190 -35 503 -35 663 0 74 -4 122 -10 122 -25
0 1 -604 41 -945 10 -83 9 -98 -16 -200 -93 -388 -119 -588 -119 -915 0 -294
9 -343 89 -507 167 -338 570 -428 843 -187 29 25 55 44 57 42 3 -2 -25 -69
-61 -149 -356 -783 -534 -1383 -619 -2089 -32 -260 -33 -266 -46 -253 -6 6
-53 156 -104 334 -232 810 -518 1691 -673 2079 -236 591 -544 1054 -891 1344
-390 326 -859 484 -1290 437 -314 -35 -579 -158 -786 -366 -185 -186 -306
-417 -345 -660 -7 -38 -16 -89 -21 -112 -5 -23 -9 -65 -9 -93 0 -72 35 -268
66 -370 61 -200 199 -414 346 -540 l53 -44 -62 67 c-137 148 -248 345 -300
532 -26 93 -28 114 -28 285 0 199 9 255 61 402 117 324 368 575 691 692 543
194 1179 -13 1643 -536 299 -337 504 -754 725 -1473 229 -747 525 -1945 726
-2935 138 -683 336 -1846 317 -1866 -4 -3 -78 25 -165 64 -461 205 -828 314
-1266 377 -237 33 -404 45 -656 45 -582 0 -1151 -107 -1683 -316 -106 -42
-408 -180 -421 -193 -9 -9 159 -321 174 -321 5 0 46 21 91 46 191 105 449 215
689 292 852 275 1762 279 2605 11 126 -40 535 -199 624 -242 25 -12 50 -32 55
-45 8 -20 15 -23 43 -18 28 4 76 -14 260 -95 157 -69 235 -109 255 -130 21
-23 31 -28 45 -20 14 8 58 -6 188 -58 473 -191 847 -280 1297 -308 102 -6 241
5 482 38 785 110 1476 520 1949 1157 128 174 129 190 0 27 -111 -141 -318
-350 -459 -464 -441 -355 -961 -566 -1533 -622 -174 -17 -545 -6 -702 20 -178
31 -344 73 -526 135 -178 60 -491 189 -512 210 -11 11 -3 23 52 72 36 33 66
62 66 67 0 4 -36 51 -81 105 -137 165 -292 408 -374 584 -81 177 -237 806
-276 1112 -20 167 4 477 57 729 85 402 266 803 505 1119 78 103 259 290 359
371 234 189 499 317 783 379 140 30 458 33 587 4 412 -90 745 -335 913 -671
96 -192 142 -447 117 -650 -58 -485 -413 -869 -879 -950 -139 -25 -272 -19
-466 19 -16 3 -10 -1 15 -10 133 -45 364 -58 517 -29 461 87 815 458 900 940
21 122 13 376 -16 490 -75 303 -229 544 -472 740 -409 330 -990 420 -1548 239
-130 -43 -375 -162 -493 -241 -342 -228 -626 -549 -846 -956 -35 -64 -68 -117
-73 -117 -12 0 -11 38 6 208 44 427 143 878 290 1317 96 289 281 754 313 785
13 13 14 7 8 -52 -23 -241 120 -462 351 -544 82 -29 225 -33 318 -9 91 23 214
88 303 160 198 160 454 520 658 928 65 129 85 159 158 237 219 235 413 514
553 797 85 172 57 157 -34 -18 -101 -195 -183 -327 -299 -483 -159 -212 -237
-293 -349 -364 -319 -200 -581 -282 -900 -282 -71 0 -156 4 -188 10 -150 24
-317 -30 -426 -139 -34 -34 -63 -61 -66 -61 -15 0 11 62 190 459 107 239 195
436 195 440 0 3 7 14 15 25 12 16 13 4 8 -100 -7 -135 5 -195 59 -297 39 -72
139 -167 220 -208 68 -34 168 -59 243 -59 125 0 290 62 410 153 217 164 484
535 710 987 45 91 106 192 145 245 180 241 308 493 394 778 20 65 36 127 36
138 0 30 -17 14 -25 -24 -13 -59 -72 -241 -104 -319 -74 -185 -193 -394 -319
-561 -58 -77 -78 -95 -162 -146 -331 -204 -634 -280 -993 -250 -117 10 -164
10 -219 1 -106 -18 -195 -69 -279 -160 -38 -42 -69 -70 -69 -63 0 8 44 124 99
260 54 135 122 316 151 401 66 193 75 205 85 114 26 -248 179 -420 417 -470
94 -20 187 -12 294 25 222 76 401 273 602 661 104 200 164 341 252 592 39 112
78 223 86 248 9 25 36 102 60 171 48 135 87 309 104 454 13 116 13 245 0 245
-6 0 -10 -33 -10 -77 0 -245 -75 -566 -187 -806 -41 -87 -53 -103 -112 -151
-290 -234 -582 -346 -956 -366 -168 -10 -223 -21 -306 -67 -48 -26 -169 -143
-169 -163 0 -6 -7 -10 -16 -10 -12 0 -15 6 -10 23 52 181 121 518 146 712 21
168 30 183 49 86 27 -135 120 -253 246 -313 124 -57 287 -48 412 23 110 63
211 186 272 332 84 204 156 582 176 923 4 78 15 142 35 213 37 127 66 284 80
420 13 132 13 241 0 241 -6 0 -10 -31 -10 -74 0 -168 -42 -438 -95 -604 -33
-105 -115 -220 -250 -351 -92 -89 -212 -181 -238 -181 -5 0 15 26 44 58 57 63
109 161 136 262 14 52 18 103 17 255 0 231 -24 424 -83 675 -15 62 -16 91 -9
170 18 178 -6 607 -34 635 -7 7 -9 -8 -4 -45 23 -204 28 -304 23 -455 -5 -164
-6 -174 -42 -275 -96 -272 -260 -492 -472 -633 -103 -68 -147 -120 -189 -222
-14 -35 -17 -38 -24 -20 -4 11 -15 91 -24 177 -9 86 -30 237 -47 335 -17 98
-33 196 -36 218 l-4 40 31 -55 c42 -75 84 -115 154 -150 135 -68 314 -22 404
104 132 183 88 493 -133 954 -41 83 -75 152 -77 152 -2 0 -4 -29 -5 -65z
m-202 -1988 c43 -74 116 -137 193 -166 63 -23 184 -28 249 -10 21 6 43 9 49 7
19 -7 -86 -56 -197 -93 -60 -21 -129 -48 -151 -61 -62 -35 -137 -123 -169
-199 -16 -36 -32 -62 -37 -57 -4 4 -4 73 2 153 5 79 10 222 10 317 0 94 3 172
8 172 4 -1 23 -29 43 -63z"/>
<path d="M5516 11895 c17 -242 81 -353 197 -342 53 5 83 26 103 74 32 76 3
122 -108 175 -73 35 -120 73 -170 138 l-27 35 5 -80z"/>
<path d="M5356 11648 c14 -236 56 -439 112 -541 38 -71 112 -134 181 -154 151
-44 301 68 301 225 0 112 -55 178 -194 230 -146 56 -247 132 -342 258 -30 41
-57 74 -59 74 -3 0 -2 -42 1 -92z"/>
<path d="M5294 11205 c-14 -141 -11 -577 4 -675 21 -128 56 -229 112 -314 27
-42 46 -76 41 -76 -16 0 -140 139 -192 217 -29 43 -75 123 -102 178 -63 126
-71 187 -65 495 6 252 -8 268 -18 22 -4 -96 -2 -214 5 -302 10 -122 10 -168
-3 -292 -18 -171 -21 -541 -5 -686 29 -276 121 -467 275 -573 123 -84 298 -97
434 -32 73 35 159 123 195 198 38 79 47 214 20 296 -38 119 -103 190 -238 259
-101 52 -211 127 -257 176 l-35 36 55 -30 c154 -86 310 -75 425 29 79 73 110
142 110 244 -1 147 -65 240 -223 318 -116 57 -168 94 -259 180 -112 107 -217
260 -254 372 l-16 50 -9 -90z"/>
</g>
</svg>
